<svg width="24" height="24" viewBox="0 0 24 24" fill="none" xmlns="http://www.w3.org/2000/svg">
<path d="M11.9998 1.30469C6.10213 1.30469 1.30469 6.10213 1.30469 11.9998C1.30469 14.9166 2.46887 17.6416 4.56695 19.6757L5.05309 20.149L5.07867 20.1234C7.01044 21.7738 9.42836 22.6693 11.987 22.6693C14.5456 22.6693 16.9635 21.761 18.8953 20.1234L18.9209 20.149L19.471 19.6117C21.5435 17.5904 22.6821 14.8782 22.6821 11.987C22.6821 6.10213 17.8846 1.30469 11.9998 1.30469Z" fill="white"/>
<path d="M16.6055 5.04051C16.3881 4.74627 16.145 4.41365 15.7996 4.1322C15.4542 3.85075 15.0832 3.68444 14.7505 3.54371C14.3667 3.36461 13.919 3.17271 13.4328 3.07036C13.1898 3.01919 12.9467 2.9936 12.7036 2.96802C12 2.90405 11.4883 2.94243 10.7846 3.04478C10.1962 3.12154 9.72282 3.40299 9.31343 3.64606C8.78891 3.96588 8.09808 4.41365 7.54797 5.04051C6.46055 6.26866 5.96162 8.0597 6.21748 9.86354C6.34542 10.7719 6.63966 11.5778 7.08742 12.2687C8.0597 13.7655 9.85075 14.7633 11.8849 14.9296C12 14.9296 12.1151 14.9424 12.2303 14.9424C13.113 14.9424 13.8934 14.661 14.5458 14.3923C15.2751 14.0981 15.7612 13.6247 16.2345 13.1642C16.3625 13.0362 16.4904 12.9083 16.6311 12.7932C17.1173 12.3454 17.5011 11.7186 17.7313 10.9765C17.936 10.3241 18 9.64606 18.0256 9.08316C18.0384 8.76333 18.064 8.39232 18.0128 8.00853C17.8593 6.80597 17.1429 5.79531 16.6055 5.0661V5.04051ZM16.2985 10.516C16.145 11.0021 15.9147 11.3859 15.6205 11.6546C15.467 11.7953 15.3262 11.936 15.1855 12.064C14.7761 12.4606 14.4307 12.7932 13.9829 12.9851C13.2281 13.2921 12.6397 13.4584 12 13.4072C10.4264 13.2793 9.05757 12.5373 8.34115 11.4243C8.00853 10.9254 7.79105 10.2985 7.6887 9.62047C7.4968 8.26439 7.85501 6.90832 8.66098 6.01279C9.08316 5.53945 9.64606 5.16844 10.0938 4.89979C10.3753 4.73348 10.6951 4.54158 10.9893 4.5032C11.3987 4.45203 11.7058 4.41365 12.0384 4.41365C12.2047 4.41365 12.371 4.41365 12.5629 4.43923C12.7548 4.45203 12.9339 4.47761 13.1258 4.51599C13.4584 4.57996 13.8038 4.74627 14.1365 4.88699C14.3923 5.00213 14.661 5.11727 14.8529 5.27079C15.0448 5.42431 15.2111 5.66738 15.3774 5.89766C15.9403 6.67804 16.4136 7.39446 16.516 8.16205C16.5544 8.4307 16.5416 8.71215 16.516 8.96802C16.4904 9.44137 16.4392 10.0043 16.2857 10.5032L16.2985 10.516ZM12 0C5.38593 0 0 5.38593 0 12C0 15.2751 1.3049 18.3326 3.67164 20.6226L4.22175 21.1599L4.24733 21.1343C6.42217 22.9765 9.13433 24 12 24C14.8657 24 17.5906 22.9893 19.7527 21.1343L19.7783 21.1727L20.4051 20.5586C22.7207 18.2815 24 15.2495 24 12C23.9872 5.38593 18.6141 0 12 0ZM12 22.4904C9.53092 22.4904 7.17697 21.6205 5.29638 20.0469C5.92324 19.4712 6.69083 18.9083 7.71429 18.2942C8.32836 17.9232 9.05757 17.5139 9.79957 17.4115C11.0533 17.2324 11.9104 17.1684 13.113 17.2836C13.5096 17.322 13.919 17.3603 14.3156 17.4371C15.0576 17.5906 15.7868 17.9104 16.4904 18.2303C17.0533 18.4733 17.6418 18.742 18.0896 19.1002C18.371 19.3305 18.6269 19.6247 18.8571 19.919C16.951 21.5693 14.5458 22.4904 12 22.4904ZM19.9318 18.8571C19.6631 18.5373 19.3817 18.2047 19.0235 17.9232C18.4094 17.4371 17.7058 17.1173 17.0917 16.8486C16.3497 16.516 15.5053 16.145 14.6098 15.9659C14.162 15.8763 13.7015 15.8252 13.2537 15.7868C11.9104 15.6588 10.9382 15.7356 9.59488 15.9275C8.57143 16.0682 7.6887 16.5672 6.9467 17.0149C6.12793 17.5011 5.13006 18.1535 4.20896 19.0107C2.46908 17.0789 1.50959 14.6098 1.50959 12C1.4968 6.20469 6.20469 1.4968 12 1.4968C17.7953 1.4968 22.4904 6.20469 22.4904 11.9872C22.4904 14.533 21.5821 16.9382 19.9318 18.8443V18.8571ZM14.1876 9.69723C13.8806 9.58209 13.5352 9.73561 13.4072 10.0426C13.2409 10.4904 12.6269 10.8358 12.0256 10.8358C11.7058 10.8358 11.3603 10.7335 11.1429 10.58C11.0533 10.4904 10.8358 10.1834 10.7974 10.081C10.6951 9.77399 10.3497 9.59488 10.0299 9.71002C9.72281 9.81237 9.54371 10.1578 9.65885 10.4648C9.77399 10.8102 10.1834 11.3859 10.4264 11.5522C10.8998 11.8593 11.4627 12.0384 12.0256 12.0384C13.1258 12.0384 14.1748 11.3731 14.5203 10.4648C14.6354 10.1578 14.4819 9.81237 14.1748 9.69723H14.1876Z" fill="#2376B4"/>
</svg>
