<svg width="135" height="106" viewBox="0 0 135 106" fill="none" xmlns="http://www.w3.org/2000/svg">
<path d="M5.2544 50.7748C5.10874 51.5904 5.65178 52.3696 6.4673 52.5152L19.757 54.8889C20.5725 55.0345 21.3517 54.4915 21.4974 53.676C21.643 52.8604 21.1 52.0812 20.2845 51.9356L8.47141 49.8257L10.5813 38.0126C10.727 37.1971 10.1839 36.4179 9.36842 36.2723C8.55289 36.1266 7.7737 36.6696 7.62805 37.4852L5.2544 50.7748ZM133.683 64.6423C119.365 55.6962 97.1411 45.2911 73.6846 40.4438C50.2555 35.6023 25.3218 36.254 5.87339 49.8079L7.58868 52.2692C26.0603 39.396 50.007 38.6143 73.0775 43.3818C96.1205 48.1436 118.015 58.3899 132.094 67.1865L133.683 64.6423Z" fill="#3F7AB9"/>
</svg>
