<svg width="34" height="31" viewBox="0 0 34 31" fill="none" xmlns="http://www.w3.org/2000/svg">
<path d="M33.2442 2.38074L30.2765 0.311352C29.9871 0.110074 29.6485 0 29.2975 0C28.7342 0 28.2046 0.279903 27.9307 0.679314L11.9654 20.2977L5.87909 11.7905C5.55584 11.3345 5.02941 11.064 4.47835 11.064C4.10893 11.064 3.75489 11.1804 3.45936 11.4037L0.713299 13.4448C-0.0594141 14.0171 -0.231812 15.1273 0.33156 15.9167L10.5462 30.2735C10.8725 30.7295 11.3958 31 11.9469 31C12.4979 31 13.0305 30.7232 13.3138 30.3175L33.6752 4.87471C33.9492 4.48473 34.0539 4.00984 33.9738 3.53495C33.8907 3.06006 33.6321 2.65121 33.2411 2.3776L33.2442 2.38074Z" fill="#2376B4"/>
</svg>
