<svg xmlns="http://www.w3.org/2000/svg" width="68.97" height="56.59" viewBox="0 0 68.97 56.59"><path d="M33.07,35,68.17,2.71a.75.75,0,0,0,.12-1l-.14.09a.69.69,0,0,0,.13-.11h0a.77.77,0,0,0-1-.28L18.37,24.34a.78.78,0,0,0-.42.56h0a.76.76,0,0,0,0,.3l3,15.3c3,14.38,3.21,15.7,3.73,15.89h0a.8.8,0,0,0,1.1-.11l13.4-16.5-1.23-1L26.85,52.59l6.2-17.52Zm-1.41-.71L25.12,52.8c-1.12-5.39-3.68-18-5.53-27.31l1.7-.79,1.88-.88L63.4,5,31.88,34A1.52,1.52,0,0,0,31.66,34.33Z" fill="#f38172"/><path d="M68.28,1.72h0c.23-.2.46-.4.7-.59C67.68-3.12,13.5,5.66.89,8.3A1.11,1.11,0,0,0,.05,9.63a1.07,1.07,0,0,0,.33.57L13.5,22A11.42,11.42,0,0,0,18,24.9h0a.78.78,0,0,1,.42-.56L67.35,1.44A.77.77,0,0,1,68.28,1.72Zm0,0a.75.75,0,0,1-.12,1L33.07,35h0c.92.66,2.73,2,4.94,3.74l1.23,1A109.23,109.23,0,0,1,49.58,49a22.15,22.15,0,0,0,4.94,3.77A1.11,1.11,0,0,0,56,52.41a1.89,1.89,0,0,0,.09-.21C58.07,45.48,66.91,15,69,1.2c0,.08-.28.28-.7.55Z" fill="#2275b4"/></svg>