<svg xmlns="http://www.w3.org/2000/svg" width="57.2" height="36.87" viewBox="0 0 57.2 36.87"><path d="M35.72,22.61a38.28,38.28,0,0,0,4.42-1.5,57.42,57.42,0,0,0,6.19-3.19c1.82-1,3.68-2.35,5.78-2.72,3.65-.64,8,.89,10.15,3.95A13.51,13.51,0,0,1,64.43,26a19.53,19.53,0,0,1-2.77,12.28,52.79,52.79,0,0,1-4,5.32,17.92,17.92,0,0,1-1.64,1.73,21.49,21.49,0,0,1-1.79,1.35,22.36,22.36,0,0,1-9,4,55.29,55.29,0,0,1-11.71.56,20.19,20.19,0,0,1-5.51-.77,19.91,19.91,0,0,1-3.6-1.59c-5.48-3-10.35-7.73-12-13.76a29.47,29.47,0,0,1-.69-3.61,12.42,12.42,0,0,1-.1-3.75,8.25,8.25,0,0,1,2.74-4.6,3.84,3.84,0,0,1,3.43-.9c3,.42,6,1.16,9.07,1.46a15.34,15.34,0,0,0,4.83-.05C33.07,23.3,34.4,23,35.72,22.61Z" transform="translate(-9.52 -14.34)" fill="#f38172"/><path d="M15.57,25.79a.3.3,0,0,1-.27-.18.29.29,0,0,1,.13-.36,2.06,2.06,0,0,1,.89-.29h.19a.34.34,0,0,1,.3.27.27.27,0,0,1-.2.31l-1,.23Z" transform="translate(-9.52 -14.34)" fill="#f38172"/><path d="M23.94,36.58l.3-.32a6.79,6.79,0,0,0,1.43,1.51,5.73,5.73,0,0,0,3,1.24,8.31,8.31,0,0,0,3.23-.67,4.46,4.46,0,0,0,2.67-1.76h0a2.63,2.63,0,0,0-.79,0L29.5,38.8A6.88,6.88,0,0,0,28,37.32c-1.36-1.06-3.1-2-4.75-1.46a4.78,4.78,0,0,0-1.07.51,5.48,5.48,0,0,0-1.2.87A3.64,3.64,0,0,0,23.94,36.58Z" transform="translate(-9.52 -14.34)" fill="#fff"/><path d="M52,33a6.88,6.88,0,0,0,1.19.2A3.5,3.5,0,0,0,52,33Z" transform="translate(-9.52 -14.34)" fill="#fff"/><path d="M45.52,36.51l.09-.09a.63.63,0,0,0-.27-.1c-2.3-.08-5.07-1.07-6.35.83a8,8,0,0,0,2.19.28A7,7,0,0,0,45.52,36.51Z" transform="translate(-9.52 -14.34)" fill="#fff"/><path d="M15.56,36a23.58,23.58,0,0,0,13,10.49c5.38,1.61,11.16.9,16.72.07a18.62,18.62,0,0,0,3.14-.65,12,12,0,0,0,4.5-2.79,19.63,19.63,0,0,0,5.63-12.89,5.53,5.53,0,0,0-.45-3.1,4.5,4.5,0,0,0-2.25-1.82A8,8,0,0,0,50.56,25c-1.75.52-3.27,1.63-5,2.24a29.56,29.56,0,0,1-5.32,1c-3.28.53-6.43,1.73-9.73,2.13-3.71.45-7.45-.1-11.16.28-1.31.14-3.71.27-4.64,1.37S14.93,35,15.56,36Z" transform="translate(-9.52 -14.34)" fill="#3d7bb8"/><path d="M57.92,20.32a5.37,5.37,0,0,0-4.17-1.12c-1.69.17-2.78,1.14-4.18,2a68.26,68.26,0,0,1-9.52,5,20.59,20.59,0,0,1-3.49,1.21,23.4,23.4,0,0,1-3.24.46c-.79.08-1.58.16-2.37.17A24.56,24.56,0,0,1,24,26.93c-2.73-.75-5.39-2.15-8.3-1.47l-.16,0A3.09,3.09,0,0,0,14.34,27a7.93,7.93,0,0,0-.35,4.4,15.28,15.28,0,0,0,.36,1.52l.16.23a9.84,9.84,0,0,0,3.14,3.21,8.54,8.54,0,0,0,2.63.8c1.26.22,2.72.31,3.66-.56l.3-.32a6.79,6.79,0,0,0,1.43,1.51,5.73,5.73,0,0,0,3,1.24,8.31,8.31,0,0,0,3.23-.67,4.46,4.46,0,0,0,2.67-1.76,36.14,36.14,0,0,0,1.12-3.45c.12.28.23.57.36.84a5.92,5.92,0,0,0,2.39,3,6.2,6.2,0,0,0,2.73.5,7,7,0,0,0,4.34-.92,7.27,7.27,0,0,0,1.9-2.6,7.85,7.85,0,0,0,.71-3,8.77,8.77,0,0,0,5.59,2.36,7.26,7.26,0,0,0,4.41-1.4A22.34,22.34,0,0,0,59.46,26C59.63,24,59.42,21.69,57.92,20.32Z" transform="translate(-9.52 -14.34)" fill="#fff"/><path d="M37.11,49a33.46,33.46,0,0,1-5.29-.41c-1.86-.3-3.9-.82-5-2.47a.28.28,0,0,1,0-.28,5.35,5.35,0,0,1,2.44-2.44,10.62,10.62,0,0,1,6.31-1.27.35.35,0,0,1,.18-.16A16.79,16.79,0,0,1,44,41.06,8.61,8.61,0,0,1,50.47,46a.3.3,0,0,1-.08.32,8.15,8.15,0,0,1-3.84,1.61A46.67,46.67,0,0,1,37.11,49Zm-9.72-3.07c1,1.36,2.84,1.82,4.52,2.09a40.17,40.17,0,0,0,14.52-.63A8,8,0,0,0,49.85,46a8.11,8.11,0,0,0-6-4.36,15.37,15.37,0,0,0-7.19.62,10.41,10.41,0,0,1,4.52,2.12.29.29,0,1,1-.37.45,10.25,10.25,0,0,0-11.29-1A5.12,5.12,0,0,0,27.39,45.88Z" transform="translate(-9.52 -14.34)" fill="#f38172"/><path d="M9.81,36.79a.3.3,0,0,1-.29-.29,20.36,20.36,0,0,1,3.11-11.94A12.47,12.47,0,0,1,23.3,18.85a.29.29,0,0,1,.28.31.32.32,0,0,1-.31.27,11.89,11.89,0,0,0-10.16,5.45,19.81,19.81,0,0,0-3,11.61.29.29,0,0,1-.28.3Z" transform="translate(-9.52 -14.34)" fill="#f38172"/><path d="M66.43,30.49a.29.29,0,0,1-.29-.25c-.71-4.8-1.68-9.7-5-12.24a11.11,11.11,0,0,0-3-1.58A23.5,23.5,0,0,0,46.33,15.2.28.28,0,0,1,46,15a.29.29,0,0,1,.24-.33,24.12,24.12,0,0,1,12.15,1.24,12,12,0,0,1,3.16,1.67C65,20.22,66,25.24,66.72,30.16a.3.3,0,0,1-.25.33Z" transform="translate(-9.52 -14.34)" fill="#f38172"/></svg>