<?xml version="1.0" encoding="UTF-8"?>
<svg width="21px" height="20px" viewBox="0 0 21 20" version="1.1" xmlns="http://www.w3.org/2000/svg" xmlns:xlink="http://www.w3.org/1999/xlink">
    <title>hiya-cart-icon</title>
    <g id="Header-and-footer" stroke="none" stroke-width="1" fill="none" fill-rule="evenodd">
        <g id="Header---320" transform="translate(-281.000000, -57.000000)" fill-rule="nonzero">
            <g id="Header" transform="translate(0.000000, -1975.000000)">
                <g transform="translate(16.000000, 2024.000000)" id="hiya-cart-icon">
                    <g transform="translate(265.000000, 8.000000)">
                        <path d="M18.9595455,7 C19.2964892,6.99937907 19.6127898,7.16507742 19.8079804,7.44446585 C20.0031711,7.72385427 20.0529909,8.08220659 19.9416155,8.40569892 L18.1730205,13.5599219 C17.9982274,14.2603563 17.6391904,14.8991318 17.1344598,15.4076622 C16.4348436,16 15.4440827,16 14.5271944,16 L5.88845515,15.8187623 L5.22794792,9.46660245 C5.17145717,8.92288939 4.79340369,7.63212343 5.1540754,7.14145555 C5.22331779,7.06002461 5.32673236,7.01728744 5.43218371,7.02652434 L18.9595455,7 Z" id="Path" fill="#FFFFFF"></path>
                        <path d="M20.5845962,6.49184138 C19.9852312,5.74838272 18.9877478,5.73024958 18.4496317,5.72118302 L6.02483831,5.53531835 L5.7492179,1.76815892 C5.66774421,0.894878699 4.98054778,0.21561355 4.13486974,0.172442767 L0.687427058,8.76173149e-05 C0.329138471,-0.00572385513 0.0282601861,0.278244124 0.000563478646,0.648437641 C-0.0142642348,1.0224036 0.265350505,1.33847905 0.626178077,1.35563003 L4.07362076,1.53242812 C4.26521595,1.54200857 4.42226809,1.69325814 4.44548957,1.8905576 L4.71236014,5.51718521 L4.63798637,5.51718521 C4.27555553,5.51718521 3.98174728,5.8216283 3.98174728,6.19717789 C3.98174728,6.57272748 4.27555553,6.87717057 4.63798637,6.87717057 L4.81298346,6.87717057 L5.51297182,16.3744016 C5.53822109,16.7278449 5.82280722,17.0009619 6.16483599,16.9999975 L6.21296019,16.9999975 C6.56091431,16.9711087 6.82515388,16.6633289 6.81232522,16.3018691 L7.31106693,16.3018691 C10.7103854,16.3018691 14.2059523,16.2656028 17.4871477,15.4858779 C18.0375775,15.3496931 18.4877378,14.9409093 18.6902527,14.3933563 C18.974623,13.6272312 19.2721181,12.8837726 19.5652382,12.126714 C19.9414819,11.1928574 20.3133507,10.2590008 20.6633449,9.28887793 C20.8733414,8.7403505 21.3414586,7.42569799 20.5845962,6.49184138 Z M19.4471151,8.82194962 C19.1014959,9.77847266 18.734002,10.6987294 18.3665081,11.6144529 C18.0602632,12.3715114 17.7583932,13.1240366 17.4915227,13.8810951 C17.4490516,14.0117875 17.3451033,14.11095 17.2159022,14.1440256 C13.9128322,14.9328172 10.2903924,14.9373504 6.81670015,14.9282839 L6.74232638,14.9282839 L6.12546164,6.89077042 L18.432132,7.08116837 C18.913374,7.08116837 19.3902411,7.12650122 19.578363,7.36223201 C19.8233589,7.66596207 19.6221122,8.3323549 19.4471151,8.82194962 L19.4471151,8.82194962 Z" id="Shape" fill="#187CBC"></path>
                        <path d="M6.68952006,17.0160401 C6.27653521,16.9529756 5.85729356,17.0777122 5.54087665,17.357795 C5.20825129,17.6360838 5.01076867,18.0501403 5.00042722,18.4909409 C4.99008577,18.9317415 5.16792195,19.3551073 5.48711037,19.6495635 C6.56243611,20.5743121 8.2829573,19.5289441 7.96035958,18.1418211 C7.79582159,17.5376986 7.29493554,17.0939856 6.68952006,17.0160401 Z" id="Path" fill="#187CBC"></path>
                        <path d="M16.7000664,17.016939 C16.2783353,16.9515795 15.8495664,17.0772871 15.5273829,17.3607494 C14.9485944,17.8701269 14.8305694,18.7347999 15.2511723,19.3843195 C15.7513149,20.0216559 16.6386952,20.1872845 17.3300204,19.7723342 C17.8500844,19.4254676 18.1020538,18.7870577 17.9615125,18.172335 C17.8209711,17.5576124 17.3176461,17.0966019 16.7000664,17.016939 Z" id="Path" fill="#187CBC"></path>
                    </g>
                </g>
            </g>
        </g>
    </g>
</svg>