<svg xmlns="http://www.w3.org/2000/svg" width="40.11" height="50" viewBox="0 0 40.11 50"><path d="M38.25,10.23a2.69,2.69,0,0,1,2,1.77,2.66,2.66,0,0,1-.81,2.11c-1.68,1.94-8.83,4.5-10.39,1C27.42,11.25,36,9.53,38.25,10.23Z" transform="translate(-7.68 -7.78)" fill="#009b82"/><path d="M31.89,19.6c4.22-1.15,9.21-2.35,12.59.42,2.67,2.18,3.21,6,3.29,9.44A65.54,65.54,0,0,1,46.29,45c-1,4.86-3.29,10.26-8,11.7C34,57.94,29.5,55.54,25.1,56c-3.66.38-7.32,2.69-10.77,1.42-3.14-1.16-4.55-4.78-5.28-8a56.43,56.43,0,0,1-.87-19.9c.42-3.11,1.16-6.32,3.15-8.74C14,17.45,17.24,17.4,20.6,19,24.38,20.89,27.82,20.71,31.89,19.6Z" transform="translate(-7.68 -7.78)" fill="#f38172"/><path d="M26.07,24.93a.57.57,0,0,1-.36-.13.55.55,0,0,1,0-.77A13.47,13.47,0,0,0,27.07,8.6.54.54,0,0,1,28,8a14.57,14.57,0,0,1-1.52,16.71A.55.55,0,0,1,26.07,24.93Z" transform="translate(-7.68 -7.78)" fill="#3d7bb8"/><path d="M28.25,25.25a22,22,0,0,1-9.13-2,.54.54,0,0,1,.45-1,21,21,0,0,0,13.28,1.37.54.54,0,1,1,.24,1.05A21.38,21.38,0,0,1,28.25,25.25Z" transform="translate(-7.68 -7.78)" fill="#3d7bb8"/></svg>