<svg xmlns="http://www.w3.org/2000/svg" fill="none" viewBox="0 0 57 23" height="23" width="57">
<path fill="#2376B4" d="M56.2555 11.951C55.9872 11.5979 55.5635 11.3295 55.0974 11.2589C54.7443 11.2165 54.4336 11.2165 54.0522 11.2165C53.7839 11.2165 53.5438 11.1459 53.4308 10.8352C53.3602 10.6798 53.2331 10.4821 53.1624 10.2985C52.8093 9.52168 51.9619 9.09797 51.0721 9.18271C50.9168 9.18271 50.6908 9.14034 50.5354 9.11209C49.7304 8.91436 48.8406 8.73075 47.9508 8.91436C47.753 8.95673 47.4847 8.91436 47.3293 8.80137C46.5949 8.29291 45.8181 8.06694 44.9283 8.13756C44.6175 8.17993 44.3916 8.02456 44.2362 7.75621C44.1232 7.55848 43.9679 7.29012 43.7701 7.13476C43.3464 6.86641 43.1911 6.47095 43.2617 6.08961C43.4594 4.69135 42.3295 3.5332 41.1007 3.57557H40.2533C39.4482 3.57557 38.8551 3.95692 38.4313 4.62073C38.1206 5.19981 37.6263 5.19981 37.2308 4.6631C36.8777 4.15465 36.4258 3.81568 35.8326 3.73093C35.0275 3.61794 34.2083 3.68856 33.4315 4.04166C33.0502 4.23939 32.7677 4.23939 32.4287 3.92867C31.892 3.50495 31.2282 3.30722 30.5785 3.39197C29.4204 3.50496 28.6859 4.1264 28.2198 5.17156C28.0221 5.52465 27.8385 5.70826 27.4431 5.70826C27.2453 5.70826 27.0193 5.75063 26.8216 5.77888C26.5109 5.89187 26.2001 5.89187 26.0165 5.62352C25.8188 5.35517 25.8612 5.11506 25.9742 4.81847C26.2001 4.31001 26.2425 3.77331 26.0872 3.2366C25.8612 2.4598 25.3951 1.83835 24.8866 1.25927C24.3782 0.637827 23.7709 0.369476 22.994 0.454219C22.1466 0.524837 21.4122 0.835564 20.7484 1.30165C19.3219 2.23382 18.3191 3.54733 17.4999 5.04445C17.2315 5.58115 16.8785 5.6659 16.3841 5.3128C16.0734 5.11507 15.7203 4.93146 15.3813 4.84671C14.9576 4.73372 14.4915 4.69135 14.0255 4.69135C13.0227 4.64898 12.2459 5.19981 11.8928 6.16022C11.7374 6.54157 11.582 6.69693 11.2289 6.69693C10.8758 6.69693 10.6499 6.54157 10.5369 6.18847C10.1555 5.29868 9.60471 4.52187 8.95501 3.91454C8.17821 3.18011 7.33078 3.06712 6.37036 3.56145C6.10201 3.67444 5.86192 3.67444 5.59357 3.60382C5.28285 3.5332 4.97212 3.40609 4.66139 3.44846C3.85634 3.51908 3.07954 3.60382 2.26036 3.91454C1.05984 4.38063 0.367758 5.38341 0.480748 6.65455C0.593738 8.43415 0.833845 10.129 0.946835 11.9086C1.17282 14.4933 1.41292 17.1626 1.56828 19.7897C1.72365 21.4563 3.23489 22.6144 4.85913 22.2613C5.86191 22.0636 6.90708 21.9082 7.95224 21.7952C8.79966 21.6823 9.57647 21.4139 10.1132 20.7077C10.2262 20.6371 10.3392 20.5947 10.4239 20.6371C11.695 21.1032 12.8955 20.6371 13.9831 20.0157C14.4492 19.7049 14.8729 19.5496 15.4096 19.5919H15.6779C16.6101 19.5213 17.3022 19.1259 17.8106 18.3208C17.9895 18.0101 18.2202 17.9724 18.5027 18.2078C19.901 19.3236 21.4828 19.945 23.2624 20.1428C24.5759 20.2981 25.8471 19.6061 26.1578 18.2925C26.3131 17.6005 26.6239 17.2898 27.2736 17.1344C27.7396 17.0214 28.0504 16.9084 28.4317 17.205C28.5871 17.2756 28.8554 17.3604 29.0532 17.3604C29.8582 17.318 30.635 17.2898 31.4542 17.1626C31.6802 17.1626 31.8355 17.1626 31.9909 17.3604C32.3722 17.9395 32.9513 18.2925 33.6575 18.3632C34.1236 18.4055 34.6179 18.4055 35.1264 18.4055C35.9314 18.4055 36.5529 18.1372 37.1037 17.6005C37.2591 17.4875 37.3721 17.5299 37.5274 17.6005C37.8805 17.7982 38.3042 17.9818 38.7279 18.1089C39.1516 18.1796 39.6177 18.1796 40.0415 18.2219C40.1968 18.2219 40.3098 18.2926 40.3945 18.3773C41.6657 19.8038 43.2617 20.2699 45.0695 19.8885C45.4932 19.7755 45.8463 19.7332 46.27 20.0439C46.7361 20.397 47.3152 20.3546 47.8519 20.3546C48.0779 20.3546 48.1626 20.397 48.2756 20.5523C48.544 20.9054 48.7841 21.2162 49.0807 21.5128C49.3914 21.8235 49.7727 22.1766 50.2812 22.1766C51.7077 22.219 53.0212 21.8659 54.024 20.7501C54.829 19.8179 55.1398 18.6174 55.2245 17.431C55.2245 17.1626 55.3799 16.9225 55.5776 16.7389C56.0013 16.3152 56.3826 15.8491 56.6651 15.3407C57.2442 14.1402 57.0182 13.0244 56.2414 11.9792L56.2555 11.951ZM7.35904 18.7586C6.42687 18.8716 5.50882 19.0694 4.57666 19.1823C4.37892 19.2247 4.26593 19.1823 4.22356 18.914C4.15294 17.4451 4.02583 15.9762 3.87047 14.5074C3.75748 12.7702 3.55974 11.1035 3.44675 9.40869C3.37613 8.29291 3.24902 7.13476 3.09366 6.00486C3.05128 5.73651 3.13603 5.62352 3.40438 5.62352C3.91284 5.66589 4.33654 5.58115 4.76025 5.51053C5.14159 9.60643 5.45232 13.6317 5.80542 17.7276C6.38449 17.657 6.89294 17.5722 7.38727 17.4592C7.50026 17.4592 7.65563 17.3886 7.81099 17.3886C8.19233 17.318 8.23471 17.318 8.27708 17.6993C8.31945 18.0101 8.31945 18.3208 8.3477 18.6598C7.99461 18.7021 7.68387 18.7304 7.3449 18.7728L7.35904 18.7586ZM8.36182 9.16859C8.05109 9.01323 7.78276 8.85786 7.5144 8.74487C7.44378 8.7025 7.35904 8.58951 7.40141 8.54714C7.7545 7.69971 7.33078 7.12064 6.8647 6.54157C6.79408 6.42858 6.66697 6.27321 6.51161 6.16022C6.77996 5.96249 7.02007 5.69414 7.28842 5.49641C7.33079 5.45403 7.44378 5.49641 7.55677 5.53878C8.22059 6.16023 8.71491 6.93703 8.87027 7.85508C8.87027 8.32116 8.67254 8.74488 8.36182 9.16859ZM10.1838 9.63467C10.1838 9.16859 10.5651 8.78725 10.9888 8.78725C11.3702 8.78725 11.6527 9.21096 11.6527 9.71942C11.6527 10.1431 11.4267 10.2985 10.9606 10.2985C10.4945 10.2985 10.1838 10.0301 10.1838 9.63467ZM12.4295 17.5157C12.1611 17.5581 11.921 17.6287 11.7374 17.7135C11.582 17.7558 11.469 17.7135 11.4267 17.5581C11.1583 15.8209 10.9182 14.1119 10.6499 12.3747C10.6922 12.0216 10.6499 11.6826 10.6075 11.2589H11.7233C11.7939 11.2589 11.8786 11.3719 11.8786 11.4566C12.0764 12.8831 12.26 14.2814 12.4153 15.7079C12.486 16.174 12.5707 16.6401 12.6837 17.1062C12.7261 17.3039 12.6837 17.4592 12.4153 17.5299L12.4295 17.5157ZM15.2966 16.4706H14.2514C14.1384 13.2645 13.8983 10.016 13.7147 6.72518C14.1808 6.76755 14.5622 6.79579 14.8729 6.88053C14.9435 6.88053 15.0282 7.0359 15.0282 7.14889C15.0706 7.9257 15.0989 8.61776 15.1412 9.30983C15.1836 11.5555 15.452 13.7164 15.7627 15.8774V15.948C15.7909 16.287 15.6356 16.4565 15.2966 16.4565V16.4706ZM24.2652 15.7785C24.1946 16.1316 24.1098 16.4 24.0674 16.7389C24.0251 16.8943 23.9968 17.0073 23.7567 16.9367C21.9348 16.7813 20.4659 16.0045 19.3501 14.578C18.4603 13.4622 18.079 12.1487 18.079 10.7081C18.079 8.23642 18.771 6.03311 20.3953 4.18289C21.0591 3.37784 21.8642 2.71402 22.9093 2.44567C23.0647 2.4033 23.22 2.44567 23.2907 2.55866C23.4884 2.86939 23.7567 3.18011 23.9121 3.49083C24.0251 3.71681 24.0675 3.87218 24.1098 3.99929C22.641 4.11228 21.8359 5.04445 21.1297 6.08961C20.1269 7.60085 19.8586 9.38044 20.0139 11.1459C20.0846 12.1063 20.3953 13.0385 20.9461 13.8153C21.7229 14.8181 22.6833 15.3548 23.9262 15.3548C24.2087 15.3548 24.3264 15.496 24.2793 15.7785H24.2652ZM27.5137 9.54993C26.5815 10.4821 26.2425 11.5555 26.5815 12.8408C26.6521 13.2221 26.7368 13.6176 26.8498 13.9989C26.8498 14.0695 26.8075 14.2673 26.7792 14.2673C26.3131 14.3096 25.8894 14.4226 25.4657 14.578C25.155 12.4171 24.8866 10.2844 24.5759 8.12343C24.929 8.08106 25.1974 8.05281 25.5363 8.01044C25.7341 7.96807 25.8471 8.05281 25.8894 8.27879C25.9318 8.58951 25.96 8.85787 26.0024 9.21096C26.4685 8.7025 26.9346 8.25054 27.3583 7.74209C27.7114 8.12343 28.0221 8.4059 28.2905 8.67425C28.0221 8.94261 27.782 9.25333 27.5137 9.56405V9.54993ZM31.0305 10.5103C30.9881 11.6261 30.9599 12.7843 30.9175 13.9142C30.9175 14.2249 30.8469 14.2955 30.5644 14.2955C30.296 14.2531 29.9853 14.2955 29.604 14.3379C29.6746 12.0922 29.8017 9.97364 29.9147 7.77033C30.3808 7.84095 30.7621 7.88332 31.0728 7.96807C31.1152 7.96807 31.1435 8.12343 31.1435 8.23642C31.1011 9.01323 31.0729 9.74766 31.0305 10.5103ZM30.7198 6.95116C30.2537 6.95116 29.8723 6.64043 29.8723 6.25909C29.8723 5.83538 30.2537 5.41167 30.6491 5.41167C31.0305 5.3693 31.3412 5.72239 31.3412 6.18847C31.3412 6.65456 31.1435 6.96528 30.7198 6.96528V6.95116ZM36.5953 9.73354C36.2845 9.73354 36.0585 9.77591 35.7478 9.77591C35.5925 9.77591 35.4795 9.81828 35.4795 10.0443C35.5218 11.7109 35.5218 13.4057 35.5218 15.03C35.5218 15.2983 35.4795 15.383 35.1687 15.383C34.9428 15.2277 34.5897 15.2701 34.279 15.2701V9.77591C33.6151 9.81828 32.9231 9.84653 32.231 9.8889C32.1886 9.50756 32.1604 9.19684 32.1604 8.84374C32.6688 8.77313 33.1632 8.73075 33.6716 8.64601H33.7422C34.1 8.61776 34.2695 8.43886 34.2507 8.10931C34.2083 7.48786 34.2083 6.79579 34.1801 6.17435C34.1801 6.01898 34.1801 5.86363 34.3354 5.86363C34.6885 5.82126 34.9993 5.793 35.3382 5.793C35.3806 6.06136 35.4089 6.30146 35.4089 6.56982C35.4512 7.07827 35.4512 7.61497 35.4795 8.15168C35.4795 8.4624 35.6348 8.61776 35.9455 8.61776H36.7224C36.7647 8.97085 36.7647 9.23921 36.793 9.54993C36.793 9.70529 36.7506 9.74766 36.5953 9.74766V9.73354ZM41.1149 9.8889C41.0725 10.9341 41.0019 11.9792 40.9171 13.095C40.8748 13.6741 40.8041 14.2955 40.7194 14.917C40.677 15.0723 40.6488 15.1853 40.4087 15.1853C40.0556 15.1429 39.7166 15.1429 39.3211 15.1147C39.4765 13.2927 39.7025 11.5273 39.8578 9.62055H38.0076C37.8523 9.62055 37.7393 9.54993 37.7393 9.3522C37.6969 8.54714 37.6969 8.50477 38.5161 8.50477C38.8974 8.50477 39.2929 8.4624 39.6036 8.4624C39.9143 8.4624 39.9567 8.39178 39.9567 8.08106C39.9567 7.41724 39.9991 6.68281 39.9991 5.99074C39.9991 5.79301 40.0697 5.68002 40.3098 5.68002C40.5075 5.68002 40.7759 5.68002 40.9736 5.63765C41.242 5.59528 41.3267 5.68002 41.3267 5.99074C41.2843 6.68281 41.2843 7.41724 41.2561 8.12343C41.2561 8.39178 41.2985 8.50477 41.6092 8.47652C41.8775 8.47652 42.1176 8.51889 42.3012 8.54714C42.3719 8.54714 42.4566 8.66013 42.4566 8.74487C42.499 8.97085 42.499 9.28158 42.499 9.5923H41.4538C41.2561 9.5923 41.1431 9.66292 41.1431 9.90303L41.1149 9.8889ZM46.4113 14.2955C46.3407 14.4509 46.2135 14.4509 46.0582 14.4085C45.2531 14.2531 44.4339 14.0554 43.6289 13.9001C43.5159 13.8577 43.3605 13.9424 43.3605 14.013C43.3182 14.3661 43.2475 14.6345 43.2475 14.9735C43.2475 15.3548 43.4453 15.5525 43.8266 15.5525C44.1797 15.5525 44.5611 15.4819 44.9424 15.3972C45.0554 15.3972 45.1401 15.3548 45.2531 15.3266C45.2531 15.7503 45.2955 16.061 45.2955 16.4423C45.2955 16.5553 45.2249 16.6683 45.1401 16.7107C43.869 17.4451 42.2024 16.513 42.2024 15.0441C42.2024 13.3492 42.7391 11.7532 44.0526 10.5951C44.5611 10.129 45.1684 9.81828 45.8322 10.1714C46.4113 10.4821 46.6373 11.0188 46.722 11.6403C46.8774 12.53 46.6514 13.3775 46.4113 14.2673V14.2955ZM49.2784 15.383C49.236 15.8915 49.2078 16.3858 49.2078 16.9225C49.2078 17.1909 49.1372 17.2756 48.8547 17.2756C48.4733 17.205 48.0779 17.205 47.7389 17.205C48.0496 15.0723 48.318 12.9538 48.6287 10.7928C48.9818 10.8352 49.4055 10.8634 49.7445 10.9482C49.7869 10.9482 49.8151 11.1035 49.7869 11.2589C49.7445 11.5696 49.7162 11.8804 49.6739 12.2193C50.0552 11.951 50.3377 11.7109 50.719 11.5273C51.1804 11.2448 51.5429 11.3484 51.8066 11.838C51.8772 11.9933 51.9619 12.1487 52.0749 12.3464C51.6936 12.5442 51.2981 12.7702 50.9591 12.9679C50.027 13.547 49.3773 14.2814 49.2925 15.3972L49.2784 15.383ZM53.2613 14.7616C52.7529 15.03 52.6822 15.2701 52.7529 15.8068C52.7952 16.0751 52.8235 16.2728 52.9082 16.4988C53.0636 17.0073 52.9788 17.5016 52.5975 17.8971C52.2161 18.4055 51.7077 18.8292 51.1992 19.366C50.9309 18.9846 50.7331 18.7021 50.5354 18.3632C50.493 18.3208 50.5354 18.1654 50.606 18.0524C50.8744 17.7841 51.1427 17.5864 51.4111 17.3604C51.6088 17.1626 51.7642 16.8943 51.6088 16.5553C51.5382 16.3576 51.5382 16.1316 51.4535 15.9339C51.1427 14.9735 51.5664 14.3944 52.2303 13.9989C52.8517 13.6176 53.5438 13.3351 54.2358 12.9961C54.3912 13.4198 54.5466 13.8012 54.6595 14.1119C54.1511 14.3803 53.6991 14.5356 53.2331 14.7757L53.2613 14.7616ZM45.1825 11.2024C44.5611 11.5131 44.2221 12.1346 43.9114 12.7843C44.4481 12.9396 44.9989 13.0103 45.578 13.1374C45.6203 12.5583 45.7333 12.0498 45.804 11.5555C45.804 11.1318 45.5356 11.0188 45.1825 11.2024Z"></path>
</svg>
