<svg xmlns="http://www.w3.org/2000/svg" xml:space="preserve" id="Layer_1" x="0" y="0" style="enable-background:new 0 0 87.8 19" version="1.1" viewBox="0 0 87.8 19"><style>.st4{fill:#fff}</style><path d="M37.7 3.1h2.1v7.7L43.3 7H46l-4.1 4.3 4.3 4.5h-2.8l-3.6-4v4h-2.1V3.1zM46.4 11.2c0-2.7 1.9-4.7 4.7-4.7s4.7 2 4.7 4.7v.8h-7.2c.3 1.3 1.3 2 2.5 2 .9 0 1.6-.3 2.1-.8h2.3c-.6 1.7-2.3 2.8-4.3 2.8-2.8-.1-4.8-2.1-4.8-4.8zm7.2-.9c-.3-1.2-1.3-1.8-2.4-1.8-1.1 0-2.1.6-2.4 1.8h4.8zM57.2 11.3c0-2.9 1.7-4.6 4.3-4.6s4.3 1.7 4.3 4.6v4.4h-2.1v-4.4c0-1.7-.9-2.6-2.2-2.6s-2.2 1-2.2 2.6v4.4h-2.1v-4.4zM74.5 3.1v8.2c0 1.5-1 2.6-2.6 2.6-1.5 0-2.6-1.1-2.6-2.6 0-1.4 1.1-2.5 2.6-2.5.7 0 1.2.2 1.6.6v-2c-.6-.4-1.2-.6-2-.6-2.1 0-4.4 1.4-4.4 4.4 0 2.8 1.9 4.7 4.7 4.7 2.8 0 4.7-1.8 4.7-4.7V3.1h-2zM82.7 6.5c-2.8 0-4.7 2-4.7 4.7s1.9 4.7 4.7 4.7 4.7-2 4.7-4.7-1.9-4.7-4.7-4.7zm0 7.4c-1.5 0-2.7-1.2-2.7-2.7s1.2-2.7 2.7-2.7 2.7 1.2 2.7 2.7-1.2 2.7-2.7 2.7zM30 3.6c-3.6 0-6.2 2.6-6.2 6.2S26.4 16 30 16s6.2-2.6 6.2-6.2-2.6-6.2-6.2-6.2zm0 10.2c-2.2 0-4-1.8-4-4s1.8-4 4-4 4 1.8 4 4-1.8 4-4 4zM-.4 0v19h19V0h-19zm4.6 4h4.9c3.1 0 5.5 2.5 5.5 5.5S12.1 15 9.1 15s-5.5-2.5-5.5-5.5c0-.6.1-1.3.3-1.8h1c-.3.5-.4 1.1-.4 1.8 0 2.5 2.1 4.6 4.6 4.6s4.6-2.1 4.6-4.6-2.1-4.6-4.6-4.6H3.3c.3-.4.5-.7.9-.9zM2.7 5.8h6.4c2 0 3.7 1.6 3.7 3.7s-1.6 3.7-3.7 3.7-3.7-1.6-3.7-3.7c0-.7.2-1.3.5-1.8H7c-.4.5-.7 1.1-.7 1.8 0 1.5 1.2 2.8 2.8 2.8s2.8-1.2 2.8-2.8-1.2-2.8-2.8-2.8H2.2c.1-.3.3-.6.5-.9zm6.4 11.1c-4.1 0-7.4-3.3-7.4-7.4 0-.6.1-1.3.2-1.8h1c-.2.5-.3 1.2-.3 1.8 0 3.6 2.9 6.5 6.5 6.5s6.5-2.9 6.5-6.5S12.7 3 9.1 3H5.5c1.1-.6 2.3-.9 3.6-.9 4.1 0 7.4 3.3 7.4 7.4s-3.3 7.4-7.4 7.4z" class="st4"/></svg>