<svg xmlns="http://www.w3.org/2000/svg" xml:space="preserve" id="Layer_1" x="0" y="0" style="enable-background:new 0 0 195 26" version="1.1" viewBox="0 0 195 26"><style>.st0{fill:#fff}</style><path d="M.6 18.8V7.6h4.8c1 0 1.8.3 2.4.9.6.6.8 1.4.8 2.5s-.3 1.8-.9 2.5c-.6.6-1.4.9-2.4.9h-3v4.5l-1.7-.1zm1.8-6.1h2.9c.5 0 .8-.1 1.1-.3.3-.3.4-.6.4-1v-.8c0-.4-.1-.8-.4-1-.3-.3-.7-.4-1.1-.4H2.4v3.5zM13.5 19c-.6 0-1.1-.1-1.6-.3-.5-.2-.9-.5-1.2-.9-.3-.4-.6-.9-.8-1.4-.2-.6-.3-1.2-.3-1.8 0-.7.1-1.3.3-1.8.2-.6.4-1 .8-1.4.3-.4.7-.7 1.2-.9.5-.2 1-.3 1.6-.3s1.1.1 1.6.3c.5.2.9.5 1.2.9s.6.8.8 1.4c.2.5.3 1.1.3 1.8s-.1 1.3-.3 1.8c-.2.5-.4 1-.8 1.4-.3.4-.7.7-1.2.9-.5.2-1.1.3-1.6.3zm0-1.5c.6 0 1.1-.2 1.5-.6.4-.4.6-.9.6-1.7v-1.4c0-.7-.2-1.3-.6-1.7-.4-.4-.9-.6-1.5-.6s-1.1.2-1.5.6c-.4.4-.6.9-.6 1.7v1.4c0 .7.2 1.3.6 1.7.4.5.9.6 1.5.6zM18.3 10.5H20l.9 3.5.8 3.2.9-3.2 1-3.5h1.6l1 3.5.9 3.2.7-3.2.9-3.5h1.6l-2.2 8.3h-2L25 15l-.7-2.3-.7 2.3-1.1 3.8h-1.9l-2.3-8.3zM35.1 19c-.6 0-1.1-.1-1.6-.3-.5-.2-.9-.5-1.2-.9-.3-.4-.6-.9-.8-1.4-.2-.6-.3-1.2-.3-1.8 0-.7.1-1.3.3-1.8.2-.6.4-1 .8-1.4.3-.4.7-.7 1.2-.9.5-.2 1-.3 1.6-.3.6 0 1.2.1 1.6.3.5.2.9.5 1.2.9.3.4.5.8.7 1.3.2.5.2 1 .2 1.6v.7h-5.7v.3c0 .6.2 1.2.6 1.6.4.4.9.6 1.6.6.5 0 .9-.1 1.3-.3.3-.2.6-.5.9-.9l1 1c-.3.5-.8.9-1.3 1.2-.6.3-1.3.5-2.1.5zm0-7.4c-.3 0-.6 0-.8.2-.3.1-.5.3-.6.4-.2.2-.3.4-.4.7s-.1.6-.1.9v.1H37v-.2c0-.6-.2-1.2-.5-1.5-.4-.4-.8-.6-1.4-.6zM40.8 18.8v-8.3h1.7v1.6h.1c.1-.4.4-.8.7-1.1.4-.3.9-.5 1.6-.5h.5v1.7h-.7c-.7 0-1.2.1-1.6.3-.4.2-.6.6-.6 1v5.3h-1.7zM50.1 19c-.6 0-1.1-.1-1.6-.3-.5-.2-.9-.5-1.2-.9s-.6-.9-.8-1.4c-.2-.6-.3-1.2-.3-1.8 0-.7.1-1.3.3-1.8.2-.6.4-1 .8-1.4.3-.4.7-.7 1.2-.9s1-.3 1.6-.3c.6 0 1.2.1 1.6.3.5.2.9.5 1.2.9.3.4.5.8.7 1.3.2.5.2 1 .2 1.6v.7h-5.7v.3c0 .6.2 1.2.6 1.6.4.4.9.6 1.6.6.5 0 .9-.1 1.3-.3.3-.2.6-.5.9-.9l1 1c-.3.5-.8.9-1.3 1.2s-1.3.5-2.1.5zm0-7.4c-.3 0-.6 0-.8.2-.3.1-.5.3-.6.4-.2.2-.3.4-.4.7s-.1.6-.1.9v.1h3.9v-.2c0-.6-.2-1.2-.5-1.5-.5-.4-.9-.6-1.5-.6zM61 17.4c-.3.5-.6.9-1 1.2-.4.3-.9.4-1.5.4-1.1 0-1.9-.4-2.5-1.1-.6-.8-.9-1.8-.9-3.2s.3-2.4.9-3.2c.6-.8 1.4-1.2 2.5-1.2.6 0 1 .1 1.5.4.4.3.7.6.9 1.2h.1v-5h1.7v11.9H61v-1.4zm-1.9.1c.5 0 1-.1 1.3-.4.4-.3.6-.6.6-1v-2.9c0-.4-.2-.8-.6-1-.4-.3-.8-.4-1.3-.4-.6 0-1.1.2-1.5.6-.4.4-.6.9-.6 1.5v1.5c0 .6.2 1.2.6 1.6.4.3.9.5 1.5.5zM69 6.9h1.7v4.9h.1c.2-.5.5-.9.9-1.2.4-.3.9-.4 1.5-.4 1.1 0 1.9.4 2.5 1.2.6.8.9 1.8.9 3.2 0 1.4-.3 2.5-.9 3.2-.6.8-1.4 1.1-2.5 1.1-.6 0-1-.1-1.5-.4-.4-.3-.7-.7-.9-1.2h-.1v1.4H69V6.9zm3.6 10.6c.6 0 1.1-.2 1.5-.6.4-.4.6-.9.6-1.6v-1.5c0-.6-.2-1.2-.6-1.5-.4-.4-.9-.6-1.5-.6-.5 0-1 .1-1.3.4-.4.3-.6.6-.6 1V16c0 .4.2.8.6 1 .4.3.8.4 1.3.5zM83.5 10.5h1.7l-3.5 10c-.1.3-.2.5-.3.7-.1.2-.3.4-.4.5l-.6.3h-1.9v-1.4h1.4l.5-1.4-3-8.7h1.7l1.7 4.9.5 1.8h.1l.5-1.8 1.6-4.9zM137.7 5.6h2.4v8.7l4-4.4h3.1l-4.7 4.9 4.9 5.1h-3.1l-4.1-4.5v4.5h-2.4l-.1-14.3zM147.6 14.8c0-3.1 2.2-5.4 5.4-5.4s5.3 2.3 5.3 5.4v.9h-8.2c.3 1.5 1.4 2.3 2.9 2.3 1.1 0 1.9-.3 2.4-1h2.6c-.7 1.9-2.6 3.2-4.9 3.2-3.2 0-5.4-2.3-5.5-5.4zm8.2-1.1c-.4-1.4-1.5-2-2.8-2s-2.4.7-2.8 2h5.6zM159.9 14.9c0-3.3 2-5.3 4.9-5.3s4.9 1.9 4.9 5.3v5h-2.4v-5c0-1.9-1-3-2.5-3s-2.5 1.1-2.5 3v5h-2.4v-5zM179.7 5.6V15c0 1.8-1.2 3-2.9 3-1.8 0-2.9-1.3-2.9-3 0-1.6 1.2-2.9 2.9-2.9.8 0 1.4.2 1.9.6v-2.2c-.6-.4-1.4-.6-2.3-.6-2.4 0-5 1.6-5 5 0 3.2 2.2 5.4 5.4 5.4s5.3-2.1 5.3-5.3V5.6h-2.4zM189 9.4c-3.2 0-5.4 2.3-5.4 5.4s2.2 5.4 5.4 5.4 5.4-2.3 5.4-5.4-2.2-5.4-5.4-5.4zm0 8.5c-1.7 0-3.1-1.4-3.1-3.1s1.4-3.1 3.1-3.1 3.1 1.4 3.1 3.1-1.3 3.1-3.1 3.1zM128.9 6.1c-4.1 0-7 3-7 7s2.9 7 7 7 7-3 7-7-2.9-7-7-7zm0 11.7c-2.6 0-4.6-2.1-4.6-4.6s2.1-4.6 4.6-4.6c2.6 0 4.6 2.1 4.6 4.6s-2.1 4.6-4.6 4.6zM94.2 2.1v21.6h21.6V2.1H94.2zm5.2 4.5h5.6c3.5 0 6.3 2.8 6.3 6.3s-2.8 6.3-6.3 6.3-6.3-2.8-6.3-6.3c0-.7.1-1.5.4-2.1h1.1c-.3.6-.4 1.4-.4 2.1 0 2.9 2.4 5.3 5.3 5.3s5.3-2.4 5.3-5.3-2.4-5.3-5.3-5.3h-6.6c.2-.4.6-.7.9-1zm-1.7 2.1h7.3c2.3 0 4.2 1.9 4.2 4.2s-1.9 4.2-4.2 4.2c-2.3 0-4.2-1.9-4.2-4.2 0-.8.2-1.5.6-2.1h1.3c-.5.6-.8 1.3-.8 2.1 0 1.7 1.4 3.2 3.2 3.2s3.2-1.4 3.2-3.2-1.4-3.2-3.2-3.2h-7.8c.1-.4.2-.7.4-1zm7.3 12.6c-4.7 0-8.4-3.8-8.4-8.4 0-.7.1-1.4.3-2.1H98c-.2.7-.3 1.4-.3 2.1 0 4.1 3.3 7.4 7.4 7.4 4.1 0 7.4-3.3 7.4-7.4s-3.3-7.4-7.4-7.4h-4c1.2-.7 2.6-1 4.1-1 4.7 0 8.4 3.8 8.4 8.4s-3.9 8.4-8.6 8.4z" class="st0"/></svg>