<svg width="117" height="41" viewBox="0 0 117 41" fill="none" xmlns="http://www.w3.org/2000/svg">
<path d="M115.505 16.1015C116.285 15.8224 116.691 14.9638 116.412 14.1838L111.863 1.47332C111.584 0.693345 110.725 0.287346 109.945 0.566499C109.166 0.845653 108.76 1.70425 109.039 2.48423L113.082 13.7824L101.784 17.826C101.004 18.1052 100.598 18.9638 100.877 19.7438C101.156 20.5237 102.015 20.9297 102.795 20.6506L115.505 16.1015ZM1.92022 40.1846C12.2315 32.1742 30.2917 21.3273 50.8473 14.9055C71.4161 8.47951 94.2717 6.54683 114.359 16.0453L115.641 13.3332C94.5989 3.38305 70.8859 5.50216 49.9527 12.0419C29.0063 18.5859 10.6312 29.6186 0.0797758 37.8154L1.92022 40.1846Z" fill="#3F7AB9"/>
</svg>
